# xmcd
#
# Track frame offsets:
#	150
#	10533
#	26343
#	37482
#	51816
#	64718
#	77971
#	90168
#	107598
#	121953
#	139595
#	152258
#	165647
#
# Disc length: 2367 seconds
#
# Revision: 0
# Processed by: cddbd v1.5.1PL0 Copyright (c) Steve Scherf et al.
# Submitted via: dBpowerAMP V4.0
#
DISCID=93093d0d
DTITLE=Dusty Springfield - Dusty in Memphis
DYEAR=1900
DGENRE=R&B
TTITLE0=Just a Little Lovin'
TTITLE1=So Much Love
TTITLE2=Son Of A Preacher Man
TTITLE3=I Don't Want To Hear It Anymore
TTITLE4=Don't Forget About Me
TTITLE5=Breakfast In Bed
TTITLE6=Just One Smile
TTITLE7=The Windmills Of Your Mind
TTITLE8=No Easy Way Down
TTITLE9=I Can't Make It Alone
TTITLE10=Willie and Laura Mae Jones
TTITLE11=That Old Sweet Roll (Hi-De-Ho)
TTITLE12=What Do You Do When Love Dies
EXTD=
EXTT0=
EXTT1=
EXTT2=
EXTT3=
EXTT4=
EXTT5=
EXTT6=
EXTT7=
EXTT8=
EXTT9=
EXTT10=
EXTT11=
EXTT12=
PLAYORDER=
